<svg xmlns="http://www.w3.org/2000/svg" viewBox="0 0 48 48">
  <path fill="#000000" d="
    M38.1 6.5C34 3.2 28.5 1.8 23.1 2.8c-3.4 0.6-6.6 2.2-9.2 4.5
    C10.5 10 8.2 13.5 7 17.3c-1 3.1-1 6.5 0 9.6
    c-1.6-2.3-2.5-5-2.5-7.8c0-1.5 0.2-3 0.7-4.4
    C3.6 22 4.5 29.4 8.8 34.9c0.2 0.3 0.5 0.6 0.7 0.8
    c-0.5-1.3-0.7-2.7-0.6-4.1c0.1-2.5 1-4.9 2.6-6.8
    c1.8 4.3 4.7 8.1 8.4 11c4.8 3.7 10.8 5.6 16.8 5.4
    c3.5-0.1 7-1.1 10-3c-2.5 0.4-5.1 0.2-7.5-0.5
    c-3.5-1-6.6-3-9-5.8c5.7 0.8 11.5-0.8 15.9-4.5
    c3.1-2.6 5.3-6.1 6.2-10c0.9-3.7 0.5-7.6-1.2-11.1
    c0.4 1.5 0.5 3 0.3 4.6c-0.5 3.7-2.4 7.1-5.4 9.4
    c0.5-5.2-1.3-10.4-4.9-14.3z
  "/>
</svg>
